# xmcd
#
# Track frame offsets:
#	150
#	14804
#	29545
#	44792
#	59737
#	76495
#	92644
#	107870
#	124881
#	139365
#	156953
#	172372
#	186400
#	200874
#	221496
#	236182
#	252350
#	266396
#	281475
#	301537
#	314600
#
# Disc length: 4443 seconds
#
# Revision: 1
# Processed by: cddbd v1.5.2PL0 Copyright (c) Steve Scherf et al.
# Submitted via: audiograbber 1.83.01
#
DISCID=54115915
DTITLE=Various Artist - CDX 617
DYEAR=2015
DGENRE=Country
TTITLE0=Hunter Hayes - 21
TTITLE1=Sam Hunt - House Party
TTITLE2=Chris Young - I'm Comin' Over
TTITLE3=Luke Bryan - Kick The Dust Up
TTITLE4=Clare Dunn - Move On
TTITLE5=Kristian Bush - Light Me Up
TTITLE6=Brushville - Dangerous
TTITLE7=Emily Minor - Funky Feel Good
TTITLE8=Lindsay Lawler - Goodbye Go
TTITLE9=Erica Nicole - I'm Making Mine
TTITLE10=Pat Waters - Like A Radio
TTITLE11=Southern Halo - Little White Dress
TTITLE12=Curtis Braly - Living On Sunshine
TTITLE13=Mikel Knight - Roses and Mayhem
TTITLE14=JB And The Moonshine Band - Shotgun Rifle And A 45
TTITLE15=Jake Dodds - Slow
TTITLE16=Chris Chitsey - Superstitious Heart
TTITLE17=Stephanie Quayle - That's What I'm Talking About
TTITLE18=Jerry Schmitt - With A Bottle And A Can
TTITLE19=Irlene Mandrell - We Will Stand
TTITLE20=Eric Paslay - She Don't Love You Summer (Tempo Mix)
EXTD=
EXTT0=
EXTT1=
EXTT2=
EXTT3=
EXTT4=
EXTT5=
EXTT6=
EXTT7=
EXTT8=
EXTT9=
EXTT10=
EXTT11=
EXTT12=
EXTT13=
EXTT14=
EXTT15=
EXTT16=
EXTT17=
EXTT18=
EXTT19=
EXTT20=
PLAYORDER=
